<svg width="18" height="17" viewBox="0 0 18 17" fill="none" xmlns="http://www.w3.org/2000/svg">
<g clip-path="url(#clip0)">
<path d="M10.6083 10.0936L15.4329 10.0936C16.0249 10.0936 16.5049 9.61368 16.5051 9.0214L16.5051 7.94917C16.5051 7.35712 16.0252 6.87718 15.4329 6.87694L10.6083 6.87693L10.6083 2.05238C10.6083 1.46034 10.1284 0.980388 9.53612 0.980146L8.46388 0.980146C7.87184 0.980146 7.39189 1.46009 7.39165 2.05238L7.39165 6.87693L2.5671 6.87694C1.97505 6.87694 1.49511 7.35688 1.49486 7.94917L1.49486 9.0214C1.49486 9.61344 1.97505 10.0936 2.5671 10.0936L7.39165 10.0936V14.9182C7.39165 15.5102 7.87184 15.9904 8.46388 15.9904H9.53612C10.1282 15.9904 10.6081 15.5105 10.6083 14.9182V10.0936Z" fill="white"/>
</g>
<defs>
<clipPath id="clip0">
<rect width="12" height="12" fill="white" transform="translate(9) rotate(45)"/>
</clipPath>
</defs>
</svg>
