<svg width="12" height="12" viewBox="0 0 12 12" fill="none" xmlns="http://www.w3.org/2000/svg">
<g clip-path="url(#clip0)">
<path d="M10.7297 6.89789L11.3143 6.30331C11.5619 6.05156 11.5619 5.64446 11.3143 5.39538L6.19768 0.188818C5.95014 -0.0629394 5.54986 -0.0629394 5.30496 0.188818L0.185654 5.39538C-0.0618849 5.64714 -0.0618849 6.05424 0.185654 6.30331L0.770266 6.89789C1.02044 7.15233 1.42861 7.14697 1.67352 6.88718L4.69665 3.65986L4.69665 11.3572C4.69665 11.7134 4.97842 12 5.32866 12H6.17134C6.52158 12 6.80336 11.7134 6.80336 11.3572L6.80335 3.65986L9.82648 6.88718C10.0714 7.14965 10.4796 7.155 10.7297 6.89789Z" fill="#BDBDBD"/>
</g>
<defs>
<clipPath id="clip0">
<rect width="12" height="12" fill="white" transform="matrix(-1 0 0 1 12 0)"/>
</clipPath>
</defs>
</svg>
