<svg width="6" height="6" viewBox="0 0 6 6" fill="none" xmlns="http://www.w3.org/2000/svg">
<path d="M0.385133 2.55105L0.0928269 2.84834C-0.0309423 2.97422 -0.0309423 3.17777 0.0928269 3.30231L2.65116 5.90559C2.77493 6.03147 2.97507 6.03147 3.09752 5.90559L5.65717 3.30231C5.78094 3.17643 5.78094 2.97288 5.65717 2.84834L5.36487 2.55105C5.23978 2.42384 5.03569 2.42651 4.91324 2.55641L3.40168 4.17007L3.40168 0.321393C3.40168 0.143288 3.26079 0 3.08567 0H2.66433C2.48921 0 2.34832 0.143288 2.34832 0.321393L2.34832 4.17007L0.836759 2.55641C0.714306 2.42518 0.510218 2.4225 0.385133 2.55105Z" fill="white"/>
</svg>
