<svg width="1479" height="2578" viewBox="0 0 1479 2578" fill="none" xmlns="http://www.w3.org/2000/svg">
<g clip-path="url(#clip0)">
<rect width="1479" height="2578" fill="white"/>
<path fill-rule="evenodd" clip-rule="evenodd" d="M1086.54 689.282L1102.88 674.19C1110.72 666.978 1115.29 656.983 1115.94 646.406C1115.94 635.829 1112.02 625.54 1104.84 617.792C1097.65 610.044 1087.85 605.484 1077.4 605.105C1066.94 604.726 1056.49 608.567 1048.66 615.78C1015.99 645.903 964.375 694.188 932.363 724.318C924.524 731.53 919.951 741.519 919.297 752.096C919.297 762.672 922.565 772.968 930.405 780.71C937.591 788.458 947.392 793.024 957.844 793.397C968.297 793.776 978.752 789.934 986.592 782.722L1002.92 767.631C1004.23 778.789 1008.8 789.666 1015.99 799.224C1071.52 872.327 1175.39 1009.56 1245.95 1102.25C1264.24 1126.59 1292.33 1141.97 1323.04 1144.6C1353.09 1147.23 1383.14 1136.85 1405.35 1116.02C1428.22 1095.2 1440.63 1065.89 1439.98 1035.35C1439.32 1004.8 1426.26 975.874 1403.39 955.72C1315.85 878.997 1186.5 765.383 1117.25 704.862C1108.1 696.951 1097.65 691.764 1086.54 689.282ZM1384.45 1080.18C1404.04 1054.54 1407.31 1015.65 1383.79 962.606C1415.15 985.491 1429.53 1029.25 1417.77 1066.33C1403.39 1112.15 1365.5 1105.82 1384.45 1080.18ZM715.474 0C557.377 1.0518 407.115 109.119 358.771 266.641C307.814 432.884 392.09 636.077 559.334 710.337C746.177 793.632 996.391 708.155 1068.25 489.982C1100.27 392.877 1093.73 283.587 1041.46 192.669C976.789 79.7735 852.01 2.36489 722.658 0.039176C720.045 0.0130443 718.087 0 715.474 0ZM713.509 68.6936C862.461 69.7585 1007.5 182.144 1017.95 345.977C1028.4 509.202 897.742 675.628 723.966 676.719C595.267 677.516 468.527 595.658 426.716 469.723C393.398 368.287 416.26 249.962 488.122 170.124C543.652 108.597 624.009 70.0002 708.284 68.7132C709.591 68.6936 711.549 68.6871 713.509 68.6936ZM943.471 418.335C957.19 462.341 933.017 537.986 883.366 590.419C938.896 546.557 976.79 479.281 980.71 408.19C983.323 353.222 926.485 362.466 943.471 418.335Z" fill="#F6F7FE"/>
<path opacity="0.15" fill-rule="evenodd" clip-rule="evenodd" d="M373.45 2096.41L356.193 2080.46C347.91 2072.84 343.079 2062.28 342.388 2051.1C342.388 2039.92 346.531 2029.05 354.124 2020.86C361.717 2012.68 372.072 2007.86 383.116 2007.46C394.16 2007.06 405.2 2011.11 413.483 2018.74C447.996 2050.57 502.531 2101.6 536.353 2133.44C544.636 2141.06 549.468 2151.61 550.158 2162.79C550.158 2173.97 546.706 2184.85 538.423 2193.03C530.83 2201.22 520.475 2206.04 509.431 2206.44C498.387 2206.84 487.34 2202.78 479.057 2195.16L461.801 2179.21C460.42 2191 455.588 2202.49 447.996 2212.59C389.324 2289.85 279.579 2434.88 205.032 2532.82C185.705 2558.54 156.019 2574.8 123.577 2577.58C91.8254 2580.35 60.0765 2569.38 36.608 2547.38C12.4491 2525.38 -0.664352 2494.4 0.0259007 2462.13C0.716153 2429.84 14.5185 2399.27 38.6774 2377.97C131.171 2296.9 267.84 2176.83 341.006 2112.88C350.67 2104.52 361.715 2099.03 373.45 2096.41ZM58.6974 2509.5C37.9898 2482.4 34.5358 2441.31 59.3849 2385.25C26.2528 2409.44 11.0659 2455.68 23.4905 2494.86C38.676 2543.29 78.7147 2536.6 58.6974 2509.5ZM765.512 1368C932.553 1369.11 1091.31 1483.31 1142.39 1649.78C1196.23 1825.46 1107.19 2040.19 930.485 2118.66C733.073 2206.69 468.703 2116.36 392.775 1885.8C358.953 1783.18 365.86 1667.69 421.08 1571.61C489.415 1452.3 621.252 1370.5 757.922 1368.04C760.683 1368.01 762.751 1368 765.512 1368ZM767.588 1440.59C610.21 1441.72 456.97 1560.48 445.926 1733.62C434.882 1906.11 572.933 2081.98 756.54 2083.14C892.519 2083.98 1026.43 1997.47 1070.6 1864.39C1105.81 1757.19 1081.65 1632.15 1005.72 1547.78C947.053 1482.76 862.151 1441.97 773.109 1440.61C771.728 1440.59 769.659 1440.59 767.588 1440.59ZM524.618 1810.08C510.122 1856.59 535.663 1936.53 588.122 1991.94C529.451 1945.58 489.413 1874.49 485.272 1799.36C482.511 1741.27 542.564 1751.04 524.618 1810.08Z" fill="#D93A3A"/>
</g>
<defs>
<clipPath id="clip0">
<rect width="1479" height="2578" fill="white"/>
</clipPath>
</defs>
</svg>
