<?xml version="1.0" encoding="utf-8"?>
<!-- Generator: Adobe Illustrator 21.0.0, SVG Export Plug-In . SVG Version: 6.00 Build 0)  -->
<svg version="1.1" id="Layer_1" xmlns="http://www.w3.org/2000/svg" xmlns:xlink="http://www.w3.org/1999/xlink" x="0px" y="0px"
	 viewBox="0 0 100 75" style="enable-background:new 0 0 100 75;" xml:space="preserve">
<style type="text/css">
	.st0{fill:#FFFFFF;}
</style>
<g>
	<path class="st0" d="M86.3,40H65.5v-8.4c0-2.5-1.3-3.2-3.2-1.5L45.2,45.7c-1.9,1.7-1.8,4.4,0,6.1l17.1,15.6c1.9,1.7,3.2,1,3.2-1.5
		V57h20.8c2.5,0,4.2-1.8,4.2-4.3v-7.9C90.5,42.3,88.8,40,86.3,40z"/>
	<path class="st0" d="M54.8,21.9L37.7,6.3c-1.9-1.7-3.2-1-3.2,1.5V17H13.7c-2.5,0-4.2,1.4-4.2,3.9v7.9c0,2.5,1.7,5.1,4.2,5.1h20.8v8
		c0,2.5,1.4,3.2,3.2,1.5L54.8,28C56.7,26.3,56.7,23.5,54.8,21.9z"/>
</g>
</svg>
