<svg width="12" height="12" viewBox="0 0 12 12" fill="none" xmlns="http://www.w3.org/2000/svg">
<path d="M11.2297 5.10211L11.8143 5.69669C12.0619 5.94844 12.0619 6.35554 11.8143 6.60462L6.69768 11.8112C6.45014 12.0629 6.04986 12.0629 5.80496 11.8112L0.685654 6.60462C0.438115 6.35286 0.438115 5.94576 0.685654 5.69669L1.27027 5.10211C1.52044 4.84767 1.92861 4.85303 2.17352 5.11282L5.19665 8.34014L5.19665 0.642786C5.19665 0.286575 5.47842 0 5.82866 0H6.67134C7.02158 0 7.30336 0.286575 7.30336 0.642786L7.30335 8.34014L10.3265 5.11282C10.5714 4.85035 10.9796 4.845 11.2297 5.10211Z" fill="#BDBDBD"/>
</svg>
