<svg width="283" height="37" viewBox="0 0 283 37" fill="none" xmlns="http://www.w3.org/2000/svg">
<path d="M28.6481 4.55434L13.0218 36.2562H7.88587L0.0180664 4.55434H4.58576C5.08114 4.55434 5.46725 4.67858 5.74408 4.92705C6.03548 5.1609 6.2176 5.46783 6.29045 5.84785L10.5303 25.6012C10.6906 26.2151 10.8363 26.8874 10.9674 27.6182C11.0986 28.3344 11.2151 29.0871 11.3171 29.8763C11.5648 29.0871 11.8343 28.3344 12.1257 27.6182C12.4171 26.8874 12.7158 26.2151 13.0218 25.6012L22.0261 5.84785C22.1718 5.5263 22.4267 5.23398 22.791 4.9709C23.1698 4.69319 23.5923 4.55434 24.0586 4.55434H28.6481Z" fill="#6D91D1"/>
<path d="M35.3976 13.7623L32.7094 36.2562H27.3986L30.0868 13.7623H35.3976ZM36.7744 7.20712C36.7744 7.67483 36.6724 8.11331 36.4684 8.52255C36.279 8.93179 36.0241 9.28988 35.7035 9.59682C35.383 9.90375 35.0187 10.1522 34.6108 10.3422C34.2028 10.5176 33.7803 10.6053 33.3432 10.6053C32.9207 10.6053 32.5127 10.5176 32.1193 10.3422C31.7259 10.1522 31.3762 9.90375 31.0703 9.59682C30.7643 9.28988 30.5166 8.93179 30.3272 8.52255C30.1524 8.11331 30.0649 7.67483 30.0649 7.20712C30.0649 6.73942 30.1596 6.29363 30.3491 5.86977C30.5385 5.44591 30.7861 5.08051 31.0921 4.77358C31.3981 4.45203 31.7478 4.20356 32.1412 4.02817C32.5491 3.83817 32.9644 3.74316 33.3869 3.74316C33.824 3.74316 34.2465 3.83817 34.6545 4.02817C35.0624 4.20356 35.4194 4.44473 35.7254 4.75166C36.0459 5.05859 36.3009 5.42399 36.4903 5.84785C36.6797 6.27171 36.7744 6.7248 36.7744 7.20712Z" fill="#6D91D1"/>
<path d="M39.7955 31.6741C39.7955 31.5718 39.7955 31.4548 39.7955 31.3233C39.7955 31.1771 39.8028 30.9725 39.8174 30.7094C39.8465 30.4317 39.883 30.0736 39.9267 29.6352C39.9849 29.1821 40.0578 28.6047 40.1452 27.9032L41.3909 17.8182H39.271C39.0088 17.8182 38.7902 17.7232 38.6154 17.5332C38.4551 17.3432 38.4041 17.0582 38.4624 16.6782L38.7028 14.5297L42.1122 13.9377L43.9043 7.79907C44.0063 7.50675 44.1592 7.2802 44.3632 7.11943C44.5672 6.95865 44.8222 6.87827 45.1282 6.87827H48.013L47.1388 13.9597H52.5589L52.0999 17.8182H46.658L45.456 27.6182C45.3831 28.2174 45.3248 28.6924 45.2811 29.0432C45.2374 29.394 45.201 29.6717 45.1719 29.8763C45.1573 30.0663 45.15 30.2052 45.15 30.2929C45.15 30.366 45.15 30.4171 45.15 30.4463C45.15 31.0018 45.2811 31.4402 45.5434 31.7618C45.8202 32.0833 46.2063 32.2441 46.7017 32.2441C47.0077 32.2441 47.2699 32.2076 47.4885 32.1345C47.707 32.0468 47.8965 31.9591 48.0567 31.8714C48.217 31.7837 48.3627 31.7033 48.4938 31.6302C48.625 31.5425 48.7488 31.4987 48.8654 31.4987C49.0256 31.4987 49.1495 31.5425 49.2369 31.6302C49.3243 31.7033 49.4044 31.8202 49.4773 31.981L50.6356 34.6119C49.8343 35.2696 48.9455 35.7665 47.9693 36.1027C47.0077 36.4389 46.0242 36.6069 45.0189 36.6069C43.4307 36.6069 42.1704 36.1758 41.238 35.3134C40.3201 34.4511 39.8392 33.238 39.7955 31.6741Z" fill="#6D91D1"/>
<path d="M68.3358 17.314C68.1318 17.2994 67.9351 17.2921 67.7457 17.2921C67.5708 17.2775 67.396 17.2701 67.2212 17.2701C66.0119 17.2701 64.89 17.5478 63.8555 18.1032C62.821 18.6587 61.925 19.4114 61.1673 20.3614C60.4243 21.2968 59.8342 22.393 59.3971 23.65C58.9745 24.8923 58.7633 26.2077 58.7633 27.5963C58.7633 29.1748 59.011 30.3294 59.5064 31.0602C60.0017 31.791 60.6792 32.1564 61.5389 32.1564C62.1362 32.1564 62.719 31.9518 63.2873 31.5425C63.8701 31.1187 64.4164 30.5487 64.9264 29.8325C65.4509 29.1017 65.9244 28.2467 66.347 27.2674C66.7841 26.2881 67.1629 25.2358 67.4834 24.1104L68.3358 17.314ZM66.8496 31.5645C65.8589 33.0991 64.737 34.3196 63.484 35.2257C62.2455 36.1319 60.8905 36.585 59.4189 36.585C58.5739 36.585 57.7798 36.4169 57.0367 36.0808C56.3082 35.7446 55.6672 35.2477 55.1135 34.5899C54.5744 33.9176 54.1446 33.0845 53.8241 32.0906C53.5181 31.0821 53.3651 29.9056 53.3651 28.5609C53.3651 27.2162 53.5326 25.9081 53.8678 24.6365C54.2029 23.365 54.6764 22.1738 55.2883 21.063C55.9148 19.9375 56.6652 18.9071 57.5394 17.9717C58.4136 17.0363 59.3898 16.2324 60.468 15.5601C61.5607 14.8878 62.7336 14.3689 63.9866 14.0035C65.2542 13.6235 66.5874 13.4335 67.9861 13.4335C68.9914 13.4335 69.9967 13.5066 71.0021 13.6527C72.022 13.7989 73.0127 14.062 73.9744 14.442L71.2862 36.2562H68.4232C67.7384 36.2562 67.2722 36.0881 67.0245 35.7519C66.7914 35.4011 66.6748 34.97 66.6748 34.4584L66.8496 31.5645Z" fill="#6D91D1"/>
<path d="M76.2258 36.2562L78.9358 13.7404H81.6895C82.2577 13.7404 82.6948 13.8793 83.0008 14.157C83.3214 14.4347 83.4816 14.8805 83.4816 15.4943L83.3724 17.9717C84.3777 16.437 85.4704 15.297 86.6506 14.5516C87.8308 13.7916 89.0619 13.4116 90.3441 13.4116C91.7137 13.4116 92.7991 13.872 93.6005 14.7928C94.4018 15.7136 94.8681 17.0436 94.9992 18.7829C96.0482 16.9413 97.2066 15.5893 98.4742 14.727C99.7563 13.85 101.148 13.4116 102.648 13.4116C103.596 13.4116 104.426 13.6016 105.14 13.9816C105.854 14.3616 106.437 14.917 106.888 15.6478C107.34 16.364 107.646 17.2555 107.806 18.3225C107.967 19.3748 107.959 20.5806 107.784 21.9399L106.102 36.2562H100.769L102.452 21.9399C102.641 20.4783 102.597 19.4333 102.321 18.8048C102.058 18.1617 101.519 17.8402 100.703 17.8402C100.15 17.8402 99.6106 17.9863 99.0861 18.2786C98.5616 18.571 98.0589 18.9948 97.5781 19.5502C97.1119 20.1056 96.6748 20.7853 96.2668 21.5891C95.8734 22.393 95.5237 23.2992 95.2178 24.3077L93.819 36.2562H88.4864L90.1911 21.9399C90.3659 20.4783 90.3295 19.4333 90.0818 18.8048C89.8341 18.1617 89.2951 17.8402 88.4646 17.8402C87.8818 17.8402 87.3208 17.9936 86.7817 18.3006C86.2572 18.6075 85.7545 19.0533 85.2737 19.6379C84.8075 20.2079 84.3704 20.9095 83.9624 21.7426C83.569 22.5611 83.2194 23.4819 82.9134 24.505L81.5147 36.2562H76.2258Z" fill="#6D91D1"/>
<path d="M119.104 13.7623L116.416 36.2562H111.105L113.793 13.7623H119.104ZM120.481 7.20712C120.481 7.67483 120.379 8.11331 120.175 8.52255C119.985 8.93179 119.73 9.28988 119.41 9.59682C119.089 9.90375 118.725 10.1522 118.317 10.3422C117.909 10.5176 117.487 10.6053 117.05 10.6053C116.627 10.6053 116.219 10.5176 115.826 10.3422C115.432 10.1522 115.083 9.90375 114.777 9.59682C114.471 9.28988 114.223 8.93179 114.034 8.52255C113.859 8.11331 113.771 7.67483 113.771 7.20712C113.771 6.73942 113.866 6.29363 114.055 5.86977C114.245 5.44591 114.493 5.08051 114.798 4.77358C115.104 4.45203 115.454 4.20356 115.848 4.02817C116.255 3.83817 116.671 3.74316 117.093 3.74316C117.53 3.74316 117.953 3.83817 118.361 4.02817C118.769 4.20356 119.126 4.44473 119.432 4.75166C119.752 5.05859 120.007 5.42399 120.197 5.84785C120.386 6.27171 120.481 6.7248 120.481 7.20712Z" fill="#6D91D1"/>
<path d="M128.703 18.4102C129.84 16.7294 131.1 15.4797 132.484 14.6612C133.868 13.8281 135.296 13.4116 136.768 13.4116C137.7 13.4116 138.538 13.6016 139.281 13.9816C140.024 14.3616 140.636 14.917 141.117 15.6478C141.598 16.364 141.933 17.2555 142.122 18.3225C142.326 19.3748 142.341 20.5806 142.166 21.9399L140.483 36.2562H135.085L136.768 21.9399C136.957 20.4783 136.884 19.4333 136.549 18.8048C136.214 18.1617 135.602 17.8402 134.714 17.8402C134.116 17.8402 133.504 18.0156 132.878 18.3663C132.251 18.7025 131.647 19.1921 131.064 19.8352C130.481 20.4637 129.942 21.2237 129.446 22.1153C128.966 22.9923 128.572 23.9788 128.266 25.075L127.021 36.2562H121.622L124.311 13.7404H127.042C127.611 13.7404 128.048 13.8793 128.354 14.157C128.674 14.4347 128.835 14.8805 128.835 15.4943L128.703 18.4102Z" fill="#6D91D1"/>
<path d="M156.941 17.2263C156.212 17.2263 155.535 17.3798 154.908 17.6867C154.282 17.979 153.713 18.3956 153.204 18.9364C152.708 19.4771 152.271 20.1275 151.892 20.8876C151.528 21.633 151.237 22.4515 151.018 23.343C152.825 23.0946 154.274 22.8242 155.367 22.5319C156.474 22.2249 157.327 21.9034 157.924 21.5672C158.522 21.2164 158.915 20.8437 159.104 20.4491C159.308 20.0399 159.41 19.616 159.41 19.1775C159.41 18.9583 159.359 18.7317 159.257 18.4979C159.17 18.264 159.024 18.0594 158.82 17.884C158.631 17.694 158.376 17.5405 158.055 17.4236C157.749 17.2921 157.378 17.2263 156.941 17.2263ZM150.559 27.092C150.559 30.629 152.052 32.3976 155.039 32.3976C155.68 32.3976 156.249 32.3391 156.744 32.2222C157.239 32.0906 157.669 31.9372 158.033 31.7618C158.412 31.5864 158.747 31.3891 159.039 31.1698C159.345 30.9506 159.622 30.7533 159.869 30.5779C160.132 30.4025 160.387 30.2563 160.634 30.1394C160.882 30.0079 161.151 29.9421 161.443 29.9421C161.618 29.9421 161.785 29.9859 161.946 30.0736C162.12 30.1613 162.273 30.2783 162.404 30.4244L163.781 32.0906C163.009 32.8653 162.251 33.5376 161.508 34.1076C160.765 34.6776 160.008 35.1453 159.236 35.5107C158.463 35.8761 157.647 36.1465 156.788 36.3219C155.928 36.4973 154.996 36.585 153.99 36.585C152.679 36.585 151.492 36.3658 150.428 35.9273C149.364 35.4742 148.454 34.8457 147.696 34.0419C146.938 33.2234 146.348 32.2441 145.926 31.1041C145.518 29.9494 145.314 28.6632 145.314 27.2455C145.314 26.0616 145.438 24.8996 145.685 23.7596C145.948 22.6196 146.319 21.538 146.8 20.5149C147.281 19.4918 147.871 18.549 148.57 17.6867C149.27 16.8244 150.056 16.079 150.931 15.4505C151.819 14.822 152.788 14.3324 153.837 13.9816C154.901 13.6308 156.037 13.4554 157.247 13.4554C158.412 13.4554 159.432 13.6235 160.306 13.9597C161.195 14.2958 161.931 14.7343 162.514 15.2751C163.111 15.8013 163.555 16.3932 163.847 17.0509C164.138 17.7086 164.284 18.3517 164.284 18.9802C164.284 19.9887 164.08 20.9095 163.672 21.7426C163.279 22.5757 162.565 23.3211 161.53 23.9788C160.51 24.6365 159.112 25.2066 157.334 25.6889C155.557 26.1566 153.298 26.5293 150.559 26.807V27.092Z" fill="#6D91D1"/>
<path d="M177.226 0.745239L174.836 20.3692H175.41C175.763 20.3692 176.046 20.3154 176.261 20.2078C176.491 20.1002 176.728 19.9003 176.973 19.6082L183.249 12.3444C183.51 12.0215 183.785 11.7756 184.077 11.6064C184.368 11.4373 184.736 11.3528 185.18 11.3528H190.237L182.467 20.1386C181.916 20.815 181.318 21.3454 180.674 21.7297C180.966 21.945 181.211 22.2063 181.41 22.5138C181.625 22.8212 181.816 23.1594 181.985 23.5284L187.801 35.0122H182.881C182.467 35.0122 182.123 34.9431 181.847 34.8047C181.571 34.651 181.349 34.3819 181.18 33.9976L176.606 25.0273C176.437 24.6737 176.253 24.4431 176.054 24.3355C175.87 24.2279 175.564 24.1741 175.134 24.1741H174.353L173.043 35.0122H167.434L171.64 0.745239H177.226Z" fill="#D93A3A"/>
<path d="M199.155 11.3528L196.328 35.0122H190.742L193.569 11.3528H199.155ZM200.604 4.45788C200.604 4.94982 200.496 5.41102 200.282 5.84147C200.082 6.27192 199.814 6.64857 199.477 6.97141C199.14 7.29425 198.757 7.55559 198.328 7.75545C197.899 7.93992 197.454 8.03216 196.994 8.03216C196.55 8.03216 196.121 7.93992 195.707 7.75545C195.293 7.55559 194.926 7.29425 194.604 6.97141C194.282 6.64857 194.021 6.27192 193.822 5.84147C193.638 5.41102 193.546 4.94982 193.546 4.45788C193.546 3.96594 193.646 3.49705 193.845 3.05123C194.044 2.6054 194.305 2.22107 194.627 1.89823C194.949 1.56002 195.316 1.29868 195.73 1.1142C196.159 0.914346 196.596 0.814419 197.04 0.814419C197.5 0.814419 197.945 0.914346 198.374 1.1142C198.803 1.29868 199.178 1.55234 199.5 1.87517C199.837 2.19801 200.105 2.58234 200.305 3.02817C200.504 3.47399 200.604 3.95056 200.604 4.45788Z" fill="#D93A3A"/>
<path d="M214.08 14.9963C213.313 14.9963 212.601 15.1577 211.942 15.4805C211.283 15.788 210.685 16.2261 210.149 16.7949C209.628 17.3637 209.168 18.0478 208.769 18.8472C208.386 19.6313 208.08 20.4922 207.85 21.43C209.75 21.1686 211.275 20.8842 212.424 20.5767C213.589 20.2539 214.486 19.9157 215.114 19.5621C215.742 19.1931 216.156 18.8011 216.355 18.3861C216.57 17.9556 216.677 17.5098 216.677 17.0486C216.677 16.818 216.624 16.5797 216.516 16.3337C216.424 16.0878 216.271 15.8725 216.057 15.688C215.857 15.4882 215.589 15.3268 215.252 15.2038C214.93 15.0654 214.539 14.9963 214.08 14.9963ZM207.367 25.3732C207.367 29.0935 208.938 30.9537 212.08 30.9537C212.754 30.9537 213.352 30.8922 213.873 30.7692C214.394 30.6309 214.846 30.4694 215.229 30.285C215.627 30.1005 215.98 29.8929 216.286 29.6623C216.608 29.4317 216.899 29.2242 217.16 29.0397C217.436 28.8552 217.704 28.7015 217.964 28.5785C218.225 28.4402 218.509 28.371 218.815 28.371C218.999 28.371 219.175 28.4171 219.344 28.5093C219.528 28.6016 219.689 28.7246 219.826 28.8783L221.275 30.6309C220.462 31.4456 219.666 32.1528 218.884 32.7524C218.102 33.3519 217.306 33.8439 216.493 34.2282C215.681 34.6125 214.823 34.8969 213.919 35.0814C213.015 35.2659 212.034 35.3581 210.976 35.3581C209.597 35.3581 208.348 35.1275 207.229 34.6663C206.111 34.1898 205.153 33.5287 204.356 32.6832C203.559 31.8223 202.938 30.7923 202.494 29.5932C202.065 28.3787 201.85 27.0258 201.85 25.5346C201.85 24.2894 201.98 23.0672 202.241 21.8681C202.517 20.669 202.908 19.5314 203.413 18.4552C203.919 17.3791 204.54 16.3875 205.275 15.4805C206.011 14.5735 206.839 13.7894 207.758 13.1284C208.693 12.4673 209.712 11.9523 210.815 11.5834C211.934 11.2144 213.129 11.0299 214.401 11.0299C215.627 11.0299 216.7 11.2067 217.62 11.5603C218.555 11.9139 219.328 12.3751 219.941 12.9439C220.57 13.4974 221.037 14.12 221.344 14.8118C221.65 15.5036 221.803 16.18 221.803 16.841C221.803 17.9018 221.589 18.8703 221.16 19.7466C220.746 20.6229 219.995 21.4069 218.907 22.0987C217.834 22.7905 216.363 23.39 214.493 23.8974C212.624 24.3893 210.248 24.7813 207.367 25.0734V25.3732Z" fill="#D93A3A"/>
<path d="M242.989 11.3528L242.69 13.7049C242.659 14.1046 242.552 14.4966 242.368 14.881C242.184 15.2499 241.985 15.5651 241.771 15.8264L230.001 30.6309H240.368L239.84 35.0122H222.691L222.99 32.6371C223.005 32.3757 223.097 32.0606 223.266 31.6916C223.434 31.3227 223.649 30.9844 223.909 30.677L235.794 15.7111H225.656L226.185 11.3528H242.989Z" fill="#D93A3A"/>
<path d="M255.969 14.9963C255.203 14.9963 254.49 15.1577 253.831 15.4805C253.172 15.788 252.574 16.2261 252.038 16.7949C251.517 17.3637 251.057 18.0478 250.659 18.8472C250.276 19.6313 249.969 20.4922 249.739 21.43C251.64 21.1686 253.165 20.8842 254.314 20.5767C255.479 20.2539 256.375 19.9157 257.003 19.5621C257.632 19.1931 258.046 18.8011 258.245 18.3861C258.459 17.9556 258.567 17.5098 258.567 17.0486C258.567 16.818 258.513 16.5797 258.406 16.3337C258.314 16.0878 258.16 15.8725 257.946 15.688C257.747 15.4882 257.479 15.3268 257.141 15.2038C256.82 15.0654 256.429 14.9963 255.969 14.9963ZM249.257 25.3732C249.257 29.0935 250.827 30.9537 253.969 30.9537C254.643 30.9537 255.241 30.8922 255.762 30.7692C256.283 30.6309 256.735 30.4694 257.118 30.285C257.517 30.1005 257.869 29.8929 258.176 29.6623C258.498 29.4317 258.789 29.2242 259.049 29.0397C259.325 28.8552 259.593 28.7015 259.854 28.5785C260.114 28.4402 260.398 28.371 260.704 28.371C260.888 28.371 261.065 28.4171 261.233 28.5093C261.417 28.6016 261.578 28.7246 261.716 28.8783L263.164 30.6309C262.352 31.4456 261.555 32.1528 260.773 32.7524C259.992 33.3519 259.195 33.8439 258.383 34.2282C257.57 34.6125 256.712 34.8969 255.808 35.0814C254.904 35.2659 253.923 35.3581 252.866 35.3581C251.486 35.3581 250.237 35.1275 249.119 34.6663C248 34.1898 247.042 33.5287 246.245 32.6832C245.448 31.8223 244.828 30.7923 244.383 29.5932C243.954 28.3787 243.74 27.0258 243.74 25.5346C243.74 24.2894 243.87 23.0672 244.13 21.8681C244.406 20.669 244.797 19.5314 245.303 18.4552C245.808 17.3791 246.429 16.3875 247.165 15.4805C247.9 14.5735 248.728 13.7894 249.647 13.1284C250.582 12.4673 251.601 11.9523 252.705 11.5834C253.823 11.2144 255.019 11.0299 256.291 11.0299C257.517 11.0299 258.59 11.2067 259.509 11.5603C260.444 11.9139 261.218 12.3751 261.831 12.9439C262.459 13.4974 262.927 14.12 263.233 14.8118C263.54 15.5036 263.693 16.18 263.693 16.841C263.693 17.9018 263.478 18.8703 263.049 19.7466C262.635 20.6229 261.884 21.4069 260.796 22.0987C259.724 22.7905 258.252 23.39 256.383 23.8974C254.513 24.3893 252.138 24.7813 249.257 25.0734V25.3732Z" fill="#D93A3A"/>
<path d="M273.545 17.0255C274.143 15.8572 274.779 14.8579 275.453 14.0277C276.143 13.1822 276.856 12.5288 277.591 12.0676C278.327 11.5911 279.085 11.3144 279.867 11.2375C280.649 11.1452 281.43 11.2682 282.212 11.6064L281.177 17.0486C279.308 16.2645 277.668 16.4567 276.258 17.6251C274.863 18.7934 273.745 21.0917 272.902 24.52L271.638 35.0122H266.075L268.925 11.3297H271.821C272.419 11.3297 272.879 11.4758 273.201 11.7679C273.538 12.06 273.706 12.5288 273.706 13.1745L273.545 17.0255Z" fill="#D93A3A"/>
</svg>
