<svg width="12" height="12" viewBox="0 0 12 12" fill="none" xmlns="http://www.w3.org/2000/svg">
<path d="M5.10211 0.770265L5.69669 0.185654C5.94844 -0.0618849 6.35554 -0.0618849 6.60462 0.185654L11.8112 5.30232C12.0629 5.54986 12.0629 5.95014 11.8112 6.19504L6.60462 11.3143C6.35286 11.5619 5.94577 11.5619 5.69669 11.3143L5.10211 10.7297C4.84767 10.4796 4.85303 10.0714 5.11282 9.82648L8.34014 6.80335H0.642786C0.286575 6.80335 0 6.52158 0 6.17134V5.32866C0 4.97842 0.286575 4.69664 0.642786 4.69664H8.34014L5.11282 1.67352C4.85035 1.42861 4.845 1.02044 5.10211 0.770265Z" fill="#6D91D1"/>
</svg>
