<svg width="12" height="13" viewBox="0 0 12 13" fill="none" xmlns="http://www.w3.org/2000/svg">
<g clip-path="url(#clip0)">
<path d="M5.10211 11.715L5.69669 12.2996C5.94844 12.5472 6.35554 12.5472 6.60462 12.2996L11.8112 7.18297C12.0629 6.93543 12.0629 6.53515 11.8112 6.29025L6.60462 1.17094C6.35286 0.923406 5.94576 0.923406 5.69669 1.17094L5.10211 1.75556C4.84767 2.00573 4.85303 2.4139 5.11282 2.65881L8.34014 5.68194L0.642786 5.68194C0.286576 5.68194 0 5.96371 0 6.31395V7.15663C0 7.50687 0.286576 7.78865 0.642786 7.78865L8.34014 7.78865L5.11282 10.8118C4.85035 11.0567 4.845 11.4649 5.10211 11.715Z" fill="white"/>
</g>
<defs>
<clipPath id="clip0">
<rect width="12" height="12" fill="white" transform="translate(0 0.485291)"/>
</clipPath>
</defs>
</svg>
